<svg version="1.1" id="OBJECTS" xmlns="http://www.w3.org/2000/svg" x="0" y="0" viewBox="0 0 38.91 38.91" xml:space="preserve"><style>.st0{fill:none;stroke:#86bb46;stroke-width:1.3469;stroke-linecap:round;stroke-linejoin:round;stroke-miterlimit:10}</style><path class="st0" d="M4.03 2.05L2.25 4.97s-6.76 9.26 7.72 23.84c.02.02.05.04.07.07.02.02.04.05.07.07 14.58 14.48 23.84 7.72 23.84 7.72l2.92-1.78c1.67-1.26 1.85-3.7.37-5.18l-3.48-3.48a3.442 3.442 0 00-4.5-.32l-3.7 2.37s-2.49 1.47-9.45-5.46c-6.93-6.96-5.46-9.45-5.46-9.45l2.37-3.7c1.03-1.37.89-3.28-.32-4.5L9.21 1.68C7.73.2 5.28.37 4.03 2.05zm17.62 7.64a5.547 5.547 0 017.85 0 5.547 5.547 0 010 7.85"/><path class="st0" d="M19.16 7.19c3.54-3.54 9.29-3.54 12.83 0s3.54 9.29 0 12.83"/><path class="st0" d="M16.62 4.66c4.95-4.95 12.96-4.95 17.91 0 4.95 4.95 4.95 12.96 0 17.91"/></svg>