<svg version="1.1" id="Object" xmlns="http://www.w3.org/2000/svg" x="0" y="0" viewBox="0 0 141.38 141.38" xml:space="preserve"><style>.st0{fill:#86bb46}</style><path class="st0" d="M82.39 21.57c26.28 15.62 34.92 49.58 19.31 75.86a55.032 55.032 0 01-21.83 20.72c18.58-.29 36.59-9.92 46.78-27.07 15.62-26.28 6.97-60.24-19.31-75.86C90.2 5.02 69.78 5.17 53.32 13.8c9.89-.15 19.94 2.34 29.07 7.77zm-63.26 80.72c2.57 9.06 6.92 17.41 12.61 24.69 4.14 2.98 8.58 5.56 13.28 7.68-6.75-8.02-11.87-17.45-14.79-27.74-4.01-14.14-4.12-28.45-.82-41.7a75.99 75.99 0 01-4.17-20.88c-9.32 17.08-11.86 37.7-6.11 57.95z"/><path class="st0" d="M32.89 106.16c3.34 11.76 9.66 22.33 18.04 30.87 7.95 2.8 16.49 4.34 25.4 4.34 27.51 0 51.62-14.56 65.05-36.39-11.62 7.15-25.29 11.28-39.94 11.28-31.52 0-58.56-19.1-70.21-46.36-2.25 11.65-1.81 24.02 1.66 36.26zm-7.76-67.11C25.29 24.74 29.39 11.38 36.39 0 14.56 13.43 0 37.54 0 65.05c0 21.9 9.23 41.63 24.01 55.55a74.164 74.164 0 01-7.54-17.55c-6.41-22.57-2.88-45.58 8.66-64z"/><path class="st0" d="M54.09 29.45S35.21 80.29 85.64 97.98c19.35-49.82-31.55-68.53-31.55-68.53z"/></svg>