<svg version="1.1" id="Capa_1" xmlns="http://www.w3.org/2000/svg" x="0" y="0" viewBox="45.91 184.84 325.84 427.2" xml:space="preserve"><style>.st0{fill:#fff}</style><path class="st0" d="M58.01 390.86h1.54l122.88-17.41c4.1-.51 7.68-2.56 10.75-6.14 1.54-1.54 2.56-3.58 3.07-5.63l.51.51c-.51.51-1.02 1.54-1.02 2.56L182.42 601.8h-15.87c-3.07 0-5.12 2.05-5.12 5.12 0 3.07 2.05 5.12 5.12 5.12h84.48c3.07 0 5.12-2.05 5.12-5.12 0-3.07-2.05-5.12-5.12-5.12h-15.87l-12.8-233.47c1.02 2.05 2.56 3.58 4.61 5.12l101.89 70.66c2.05 1.54 4.61 2.05 6.66 2.05 3.58 0 7.17-1.54 9.73-4.61 3.58-5.12 3.07-12.29-2.05-16.38l-95.23-79.36c-3.07-2.56-7.17-4.1-11.78-4.1-1.54 0-3.07.51-4.1.51-.51-4.1-2.05-8.19-4.61-11.26.51 0 1.02-.51 1.02-.51 3.58-2.56 6.14-6.14 6.66-10.24l27.14-121.34c1.54-6.14-2.56-12.29-8.7-13.82-5.63-1.02-12.29 2.05-14.34 8.19L201.37 311c-1.02 4.1-1.02 8.19 1.02 12.29 0 .51.51 1.02.51 1.02-2.56 1.02-5.12 2.56-7.17 4.61-3.58 3.07-5.63 7.17-6.66 11.78-.51 0-.51-.51-1.02-.51-3.58-2.05-8.19-2.56-12.29-1.54L54.94 367.3c-6.14 1.54-10.24 7.68-8.7 13.82 1.02 5.64 6.14 9.74 11.77 9.74zM192.66 601.8l12.8-232.45h6.14l13.31 232.45h-32.25zm44.04-249.34s.51 0 0 0c2.05 0 3.58.51 4.61 1.54l95.23 78.85c.51.51 1.02 1.54 0 2.56-.51.51-1.54 1.02-2.05.51L232.6 365.26c-1.54-1.02-2.56-2.56-2.56-4.1-.51-2.05 0-4.1 1.54-6.14 1.02-1.54 2.56-2.56 5.12-2.56zm-25.09-38.4L249.5 196.3c0-.51 1.02-1.02 1.54-1.02h.51c1.02 0 1.54 1.02 1.02 2.05l-27.14 120.83c-.51 1.54-1.54 3.07-3.07 4.1-1.54 1.02-4.1 1.54-6.14 1.02-2.05-.51-3.58-2.05-4.61-4.1-.51-1.54-.51-3.08 0-5.12zm-8.71 22.52c2.05-2.05 5.12-3.07 8.19-3.07 6.14.51 11.26 5.63 10.75 11.78 0 3.07-1.54 5.63-3.58 7.68s-5.12 3.07-8.19 3.07-5.63-1.54-7.68-3.58-3.07-5.12-3.07-8.19c0-2.57 1.02-5.64 3.58-7.69zM57.5 377.54l120.83-28.67h1.54c1.02 0 2.56.51 3.58 1.02 2.05 1.02 3.07 3.07 3.58 5.12.51 2.05 0 4.1-1.54 6.14-1.02 1.54-2.56 2.05-4.1 2.56l-122.88 16.9c-1.02 0-1.54-.51-2.05-1.54.01-.5.52-1.53 1.04-1.53z"/><path class="st0" d="M206.49 211.66c-67.07 2.05-122.88 54.27-129.54 120.83-.51 2.56 1.54 5.12 4.61 5.63h.51c2.56 0 4.61-2.05 5.12-4.61C93.34 271.56 145.05 223.94 207 221.9c3.07 0 5.12-2.56 5.12-5.12-.51-3.08-3.07-5.12-5.63-5.12z"/><path class="st0" d="M77.46 262.34c1.54 0 3.07-1.02 4.1-2.05 29.18-43.01 77.31-67.07 128.51-64.51 3.07 0 5.12-2.05 5.12-5.12 0-3.07-2.05-5.12-5.12-5.12-54.27-3.07-105.98 23.04-136.7 68.61-1.54 2.56-1.02 5.63 1.54 7.17.51.51 1.53 1.02 2.55 1.02zm-26.11 82.44c3.07 0 5.12-2.05 5.12-5.12 1.02-19.46 5.63-40.45 11.78-55.81 1.02-2.56 0-5.63-2.56-6.66-2.56-1.02-5.63 0-6.66 2.56-7.17 15.87-11.78 38.91-12.8 59.39 0 3.08 2.05 5.64 5.12 5.64zm282.11-38.92c-2.56.51-4.61 3.58-3.58 6.14 6.14 25.6 3.58 51.71-7.17 75.78-1.02 2.56 0 5.63 2.56 6.66.51.51 1.54.51 2.05.51 2.05 0 3.58-1.02 4.61-3.07 11.78-26.11 14.34-54.27 8.19-81.92-1.02-3.07-4.1-4.61-6.66-4.1zm-56.83-68.09c19.97 12.29 35.84 30.72 45.57 52.22 1.02 2.05 2.56 3.07 4.61 3.07.51 0 1.54 0 2.05-.51 2.56-1.02 3.58-4.1 2.56-6.66-10.75-23.55-27.65-43.01-49.66-56.83-2.56-1.54-5.63-.51-7.17 1.54-1.03 2.56-.01 5.63 2.04 7.17z"/><path class="st0" d="M343.7 402.12c-1.54 2.56-.51 5.63 2.05 7.17 1.02.51 1.54.51 2.56.51 2.05 0 3.58-1.02 4.61-2.56 25.6-46.59 25.09-101.38-1.54-147.46-1.54-2.56-4.61-3.07-7.17-2.05-2.56 1.54-3.07 4.61-2.05 7.17 24.58 42.5 25.1 93.7 1.54 137.22zm-59.39-192.51c16.38 8.7 32.77 22.02 43.01 33.79 1.02 1.02 2.56 1.54 4.1 1.54 1.02 0 2.56-.51 3.58-1.02 2.05-2.05 2.56-5.12.51-7.17-10.75-12.8-28.16-26.62-45.57-35.84-2.56-1.54-5.63-.51-7.17 2.05-2.04 2.04-1.02 5.11 1.54 6.65zm-7.68 241.66c1.02 0 1.54 0 2.56-.51 4.61-2.56 6.14-4.1 9.22-6.14l2.05-1.54c2.05-1.54 2.56-5.12 1.02-7.17s-5.12-2.56-7.17-1.02l-2.05 1.54c-3.07 2.56-4.1 3.07-8.19 5.63-2.56 1.54-3.07 4.61-2.05 7.17 1.03 1.02 2.56 2.04 4.61 2.04zm-17.41 35.84c1.02 2.05 2.56 3.07 4.61 3.07.51 0 1.02 0 2.05-.51 6.14-2.56 12.8-5.63 19.97-9.73 5.63-3.07 10.75-6.66 15.87-10.75 4.61-3.58 9.22-7.17 13.31-10.75 2.05-2.05 2.56-5.12.51-7.17s-5.12-2.56-7.17-.51c-3.58 3.58-8.19 6.66-12.29 9.73-5.12 3.58-10.24 7.17-15.36 9.73-6.66 3.58-12.8 6.66-18.43 9.22-2.55 2.04-4.09 5.11-3.07 7.67z"/></svg>