<svg version="1.1" id="Слой_1" xmlns="http://www.w3.org/2000/svg" xmlns:xlink="http://www.w3.org/1999/xlink" x="0" y="0" viewBox="0 0 511 463" xml:space="preserve"><style>.st0{clip-path:url(#SVGID_2_)}.st0,.st1{fill:#fff}</style><defs><path id="SVGID_1_" d="M0 0h511v463H0z"/></defs><clipPath id="SVGID_2_"><use xlink:href="#SVGID_1_" overflow="visible"/></clipPath><path class="st0" d="M49.9 262.54c-5.51 0-9.98 4.47-9.98 9.98 0 5.51 4.47 9.98 9.98 9.98 5.51 0 9.98-4.47 9.98-9.98 0-5.51-4.47-9.98-9.98-9.98zm0 0"/><path class="st0" d="M458.72 297.15l-94.09 32.35c.42-2.32.65-4.68.65-7.08 0-22.01-17.91-39.92-39.92-39.92h-64.63a9.98 9.98 0 01-4.9-1.28l-52.73-29.66c-10.42-5.88-22.27-8.98-34.26-8.98H98.09c-4.12-11.61-15.21-19.96-28.22-19.96H9.98c-5.51 0-9.98 4.47-9.98 9.98v179.65c0 5.51 4.47 9.98 9.98 9.98h59.88c12.71 0 23.61-7.99 27.94-19.21 11.3 1.4 24.37 4.75 32.59 9.67l52.2 31.31a127.219 127.219 0 0065.48 18.14c18.28 0 35.99-3.84 52.63-11.4l186.28-82.02c20.63-8.37 30.82-33.12 19.03-54.94-8.68-16.05-29-23.2-47.29-16.63zM79.84 392.33c-.02 5.48-4.5 9.93-9.98 9.93h-49.9V242.57h49.9c5.5 0 9.98 4.48 9.98 9.98v139.78zm399.55-42.07c-.11.04-.21.09-.32.13 0 0-186.55 82.14-186.59 82.16-14.05 6.39-29 9.64-44.43 9.64-19.44 0-38.53-5.29-55.21-15.3l-52.19-31.32c-11.18-6.7-27.18-10.79-40.86-12.43v-120.6h69.03c8.56 0 17.02 2.21 24.47 6.41l52.73 29.66a29.97 29.97 0 0014.69 3.85h64.63c11.01 0 19.96 8.95 19.96 19.96 0 10.97-8.96 19.96-19.96 19.96H223.9c-5.51 0-9.98 4.47-9.98 9.98 0 5.51 4.47 9.98 9.98 9.98h101.46c6.55 0 12.99-1.63 18.71-4.68 0 0 121.3-41.7 121.35-41.71 8.94-3.23 19.06-.02 23.02 7.32 5.95 11 1.03 22.96-9.05 26.99zm0 0"/><path class="st1" d="M290.68 243.03a9.93 9.93 0 006.53 2.44c2.33 0 4.66-.81 6.54-2.44 81.43-70.57 131.8-106.29 131.8-161.79 0-43.91-31.08-80.29-74.75-80.29-28.68 0-50.64 16.53-64.78 41.34C281.91 17.54 259.97.95 231.25.95c-33.43 0-61.38 21.67-71.2 55.19-1.55 5.29 1.48 10.83 6.77 12.39a9.975 9.975 0 0012.38-6.77c7.27-24.81 27.7-40.84 52.05-40.84 28.47 0 48.44 25.29 55.16 48.82a9.988 9.988 0 009.62 7.32c4.49 0 8.42-2.99 9.62-7.32.14-.49 14-48.82 55.16-48.82 31.24 0 54.79 25.93 54.79 60.33 0 44.4-43.4 76.41-118.39 141.06-45.69-39.24-81.98-66.86-102.6-93.87-3.35-4.38-9.61-5.23-13.99-1.88-4.38 3.34-5.22 9.61-1.88 13.99 23.24 30.45 62.49 59.63 111.94 102.48zm0 0"/><path class="st1" d="M168.67 88.88c-5.51 0-9.98 4.47-9.98 9.98 0 5.51 4.47 9.98 9.98 9.98 5.51 0 9.98-4.47 9.98-9.98 0-5.51-4.47-9.98-9.98-9.98zm0 0"/></svg>