<svg xmlns="http://www.w3.org/2000/svg" viewBox="0 0 48 44"><path d="M44.01 34.31l-7.64-3.82a2.11 2.11 0 01-1.17-1.89v-2.7c.18-.23.38-.48.57-.76.99-1.4 1.79-2.96 2.36-4.64A3.175 3.175 0 0040 17.6v-3.2c0-.77-.29-1.51-.8-2.1V8.04c.05-.44.22-3.06-1.67-5.22C35.88.95 33.22 0 29.6 0s-6.29.95-7.93 2.82c-1.15 1.31-1.53 2.79-1.65 3.84-1.37-.7-2.99-1.06-4.82-1.06-8.31 0-8.79 7.08-8.8 7.2v3.66c-.52.56-.8 1.21-.8 1.86v2.76c0 .86.39 1.67 1.05 2.21.66 2.49 2.29 4.37 2.91 5.03v2.19c0 .63-.34 1.21-.93 1.54L3.3 35.4A6.34 6.34 0 000 40.96V44h48v-3.23c0-2.75-1.53-5.23-3.99-6.46zm-32.81 6.3v1.79H1.6v-1.44c0-1.73.95-3.33 2.51-4.18l5.32-3.34c1.07-.58 1.73-1.7 1.73-2.92v-2.87l-.25-.24c-.02-.02-2.15-2.03-2.78-4.76l-.07-.32-.27-.18c-.37-.24-.59-.64-.59-1.07v-2.76c0-.29.2-.63.54-.94l.26-.23v-4.3c.01-.23.43-5.65 7.2-5.65 1.91 0 3.53.44 4.8 1.32v3.79c-.51.58-.8 1.33-.8 2.1v3.2c0 .24.03.48.08.71.02.09.06.18.09.27.04.13.08.27.14.4.2.42.5.8.88 1.1 0 .02.01.03.01.04l.15.55.07.21c.01.04.02.07.04.11.03.09.05.17.09.25.05.14.1.29.16.44.02.06.05.13.08.19.06.17.13.33.2.49.02.04.03.08.05.12l.05.1c.02.05.04.09.06.13.08.17.16.34.23.5.01.02.02.05.04.08.05.1.1.19.15.29.09.16.17.32.26.47.04.07.08.15.12.21.12.2.23.38.33.54.02.04.05.07.07.11a12.358 12.358 0 00.6.86c.02.02.04.06.06.08v2.65c0 .77-.42 1.48-1.1 1.86l-2.12 1.16-.37-.04-.15.32-4.5 2.46a7.205 7.205 0 00-3.77 6.34zm35.2 1.79H12.8v-1.79a5.62 5.62 0 012.93-4.93l7.14-3.9c1.2-.65 1.94-1.9 1.94-3.26v-3.21l-.16-.18-.03-.04s-.05-.06-.13-.17c0 0-.01-.01-.01-.02-.04-.05-.09-.12-.15-.2-.12-.16-.27-.38-.44-.64 0 0 0-.01-.01-.02-.08-.13-.16-.26-.25-.4-.01-.01-.02-.02-.02-.03-.18-.3-.38-.65-.57-1.03-.1-.2-.2-.42-.3-.64-.02-.03-.03-.06-.04-.09-.04-.1-.09-.2-.13-.31-.02-.04-.03-.08-.05-.12-.04-.11-.09-.21-.13-.33-.08-.22-.16-.44-.23-.68l-.04-.14c0-.02-.01-.04-.01-.05-.07-.25-.15-.51-.21-.78l-.08-.32-.27-.18c-.46-.3-.74-.8-.74-1.34v-3.2c0-.44.19-.87.54-1.18l.27-.24V7.72l-.04-.02c-.03-.58.01-2.35 1.3-3.82C24.2 2.37 26.46 1.6 29.6 1.6c3.12 0 5.38.76 6.71 2.26 1.56 1.76 1.3 4.01 1.3 4.03v5.08l.26.24c.35.31.54.73.54 1.18v3.2c0 .7-.46 1.31-1.14 1.52l-.4.12-.13.4c-.54 1.66-1.3 3.2-2.26 4.57-.24.34-.47.64-.67.86l-.2.23v3.3c0 1.42.79 2.69 2.05 3.32l7.64 3.82a5.59 5.59 0 013.1 5.02v1.65zm0 0" fill="#fff"/></svg>