<svg xmlns="http://www.w3.org/2000/svg" viewBox="-41.38 141 496.76 512"><path d="M18.32 556.7h8.69c4.75 8.17 13.6 13.55 23.43 13.55 14.93 0 27.08-12.15 27.08-27.08V389.06c0-7.24-2.82-14.04-7.95-19.17-5.13-5.1-11.92-7.91-19.13-7.91-9.81 0-18.66 5.38-23.42 13.54h-3.11v-28.23c0-37.85 11.45-74.18 33.11-105.05 19.05-27.15 44.72-48.35 74.65-61.86 4.85 9.14 14.47 15.39 25.53 15.39h99.6c11.06 0 20.68-6.25 25.53-15.41 20.12 9.07 38.3 21.63 54.15 37.46 34.58 34.57 53.63 80.55 53.63 129.47v28.23H387c-4.75-8.16-13.61-13.54-23.42-13.54-7.22 0-14.02 2.81-19.16 7.93-5.12 5.11-7.93 11.91-7.93 19.15v154.11c0 9.75 5.2 18.28 12.95 23.05-14.89 22.97-39.74 38.13-67.08 40.75a35.25 35.25 0 00-8.9-14.77c-6.72-6.74-15.67-10.45-25.2-10.45h-18.21c-19.65 0-35.63 15.98-35.63 35.63 0 9.53 3.71 18.48 10.43 25.17 6.72 6.74 15.67 10.45 25.2 10.45h18.21c16.31 0 30.09-11.02 34.3-26 37.08-2.97 70.63-24.83 88.26-57.75a27.325 27.325 0 0016.21-12.55h8.67c32.92 0 59.7-26.78 59.7-59.7v-61.77c0-27.96-19.32-51.49-45.31-57.95v-30c0-54.26-21.12-105.25-59.48-143.59-18.83-18.81-40.65-33.47-64.92-43.65v-9.06c0-5.51-4.47-9.98-9.98-9.98H138.3c-5.51 0-9.98 4.47-9.98 9.98v9.07c-35.29 14.82-65.49 39.16-87.64 70.72-24.03 34.25-36.73 74.54-36.73 116.52v30c-26 6.45-45.32 29.98-45.32 57.95v61.77c-.01 32.91 26.77 59.69 59.69 59.69zm25-167.64c0-.5.05-1.01.15-1.49.69-3.26 3.62-5.63 6.96-5.63 1.89 0 3.69.75 5.03 2.08a7.072 7.072 0 012.08 5.03v154.11c0 3.92-3.19 7.11-7.11 7.11-3.35 0-6.27-2.37-6.96-5.64-.1-.48-.15-.98-.15-1.48V389.06zM229.41 633c-3.94-.16-7.63-1.75-10.45-4.58a15.504 15.504 0 01-4.58-11.05c0-8.42 6.69-15.29 15.03-15.63V633zm19.97-.02v-31.21c3.76.27 7.25 1.84 9.96 4.55 2.95 2.94 4.58 6.87 4.58 11.05-.01 8.26-6.43 15.03-14.54 15.61zm121.32-89.81c0 .5-.05.99-.16 1.49-.68 3.26-3.61 5.62-6.96 5.62-3.93 0-7.13-3.19-7.13-7.11V389.06c0-1.9.74-3.69 2.07-5.01a7.112 7.112 0 015.06-2.1c3.34 0 6.27 2.37 6.96 5.63.1.48.15.98.15 1.49l.01 154.1zm19.96-147.68h5.02c21.91 0 39.73 17.83 39.73 39.74V497c0 21.91-17.82 39.73-39.73 39.73h-5.02V395.49zM148.28 160.97H265.7v5.94c0 4.91-3.99 8.9-8.9 8.9h-99.6c-4.92 0-8.92-3.99-8.92-8.9v-5.94zM-21.41 435.23c0-21.92 17.82-39.74 39.73-39.74h5.04v141.24h-5.04c-21.91 0-39.73-17.82-39.73-39.73v-61.77z" fill="#fff"/></svg>