<svg xmlns="http://www.w3.org/2000/svg" viewBox="0 0 48.66 57.28"><path d="M48.2 18.79h-.5l.03-1.04c.02-.64-.59-1.16-1.36-1.16h-.08l-.19-5.48h-.73l-.19 5.48h-.08c-.76 0-1.37.52-1.35 1.16l.03 1.04h-.5c-.25 0-.46.21-.46.46v.16c0 .25.21.46.46.46h.53l.03 1.11c.03 1.02.05 1.99.08 2.92.02.93.05 1.83.07 2.7.02.88.04 1.73.07 2.59.02.86.05 1.72.07 2.59.03.88.05 1.77.07 2.7.02.93.05 1.9.08 2.91.03 1.02.06 2.09.09 3.24.01.57.36 1.04.79 1.14-.16 1.02-2.51 14.35-12.09 14.35-3.02 0-5.36-.86-6.96-2.55-1.02-1.08-1.59-2.35-1.92-3.51h2.69c.18 0 .36-.02.53-.05.94 2.03 2.64 3.95 5.42 3.95 5.43 0 6.79-11.61 6.85-12.1 0-.03-.01-.05-.01-.08.45-.08.8-.56.81-1.14.03-1.14.06-2.22.08-3.24.03-1.02.05-1.99.08-2.92.03-.93.05-1.82.07-2.7.02-.88.05-1.73.07-2.59.02-.86.05-1.72.07-2.59.03-.88.05-1.77.08-2.7.02-.93.05-1.89.08-2.92l.03-1.11h.53c.25 0 .46-.21.46-.46v-.16c0-.25-.21-.46-.46-.46h-.5l.03-1.04c.02-.64-.59-1.16-1.35-1.16h-.08l-.19-5.48h-.73l-.19 5.48h-.08c-.77 0-1.37.52-1.36 1.16l.03 1.04h-.5c-.25 0-.46.21-.46.46v.16c0 .25.21.46.46.46h.53l.03 1.11c.03 1.02.05 1.99.08 2.92.03.93.05 1.83.07 2.7.02.88.05 1.73.07 2.59.02.86.05 1.72.07 2.59.02.88.05 1.77.07 2.7.02.93.05 1.9.08 2.91.03 1.02.06 2.09.09 3.24.02.57.36 1.04.8 1.14-.36 3.11-2.05 11.03-5.7 11.03-2.32 0-3.63-1.64-4.35-3.22.78-.52 1.3-1.4 1.3-2.41V2.89C29.79 1.3 28.5 0 26.9 0H2.89C1.29 0 0 1.29 0 2.89v44.29c0 1.59 1.29 2.89 2.89 2.89h20.09c.36 1.38 1.02 2.95 2.28 4.29 1.82 1.94 4.45 2.92 7.81 2.92 10.89 0 13.22-15.25 13.24-15.4 0-.03 0-.07-.01-.1.45-.08.8-.56.81-1.14.03-1.14.06-2.22.08-3.24.03-1.02.05-1.99.08-2.92.02-.93.05-1.82.07-2.7.02-.88.05-1.73.07-2.59.02-.86.05-1.72.07-2.59.02-.88.05-1.77.07-2.7.03-.93.05-1.89.08-2.92l.03-1.11h.53c.26 0 .46-.21.46-.46v-.16a.45.45 0 00-.45-.46zM22.44 46.84v-.26h.59v-.59h.26v.59h.6v.26h-.6v.59h-.26v-.59h-.59zm5.28 0h-1.44v-.26h1.44v.26zm-.68-1.68c.86 0 1.55.69 1.55 1.55 0 .54-.28 1.01-.69 1.29-.06-.2-.1-.4-.14-.57.18-.19.3-.44.3-.72 0-.56-.45-1.02-1.02-1.02-.56 0-1.02.46-1.02 1.02 0 .41.24.76.59.92.04.19.09.4.15.6-.72-.13-1.27-.76-1.27-1.52-.01-.86.69-1.55 1.55-1.55zm-5.43-14.14v-2.45h5.15v2.45h-5.15zM3 3.1h23.76v24.02H3V3.1zm17.56 27.92h-5.15v-2.45h5.15v2.45zm-6.2-2.45v2.45H9.21v-2.45h5.15zM3 28.57h5.15v2.45H3v-2.45zm1.25 19.69c-1.18 0-2.13-.95-2.13-2.13 0-1.17.95-2.13 2.13-2.13s2.13.95 2.13 2.13-.96 2.13-2.13 2.13zm2.99-8.08c0-4.23 3.42-7.65 7.65-7.65 1.59 0 3.06.48 4.29 1.31L8.55 44.46a7.57 7.57 0 01-1.31-4.28zm7.64 7.64a7.57 7.57 0 01-4.28-1.31L21.22 35.9c.83 1.22 1.31 2.7 1.31 4.29 0 4.21-3.42 7.63-7.65 7.63zm6.73-1.11c0-.86.69-1.55 1.55-1.55.86 0 1.55.69 1.55 1.55 0 .63-.38 1.17-.91 1.41-.02-.22-.04-.43-.05-.6.25-.19.43-.47.43-.81 0-.56-.46-1.02-1.02-1.02s-1.02.46-1.02 1.02c0 .35.19.64.46.83.01.18.02.4.04.63-.6-.23-1.03-.79-1.03-1.46z" fill="#fff"/></svg>