<svg version="1.1" id="Layer_1" xmlns="http://www.w3.org/2000/svg" x="0" y="0" viewBox="0 0 70.61 72.03" xml:space="preserve"><style>.st0{fill:#fff}</style><path class="st0" d="M67.58 43.49c-.92-.67-1.99-1.45-3.15-2.27-1.15-.83-2.41-1.67-3.65-2.53-.62-.43-1.23-.88-1.83-1.33-.6-.45-1.19-.88-1.79-1.24-.61-.36-1.22-.66-1.82-.91a21.252 21.252 0 00-3.05-1.06c-.08.75-.47 1.4-1.04 1.83.3.3.63.62 1 .95.43.38.91.77 1.44 1.16.52.4 1.09.78 1.7 1.12.62.34 1.29.64 1.98.93.69.29 1.38.59 2.06.92 1.37.65 2.72 1.32 4.01 1.9 1.29.6 2.5 1.13 3.54 1.6 2.08.92 3.49 1.49 3.49 1.49l.17-.3c-.03.01-1.23-.92-3.06-2.26zm-19.34-13.4c.09.48.2.92.31 1.33.33-.15.7-.23 1.08-.23.37 0 .72.08 1.04.21.11-.4.22-.83.31-1.31.12-.56.22-1.18.29-1.82.08-.65.13-1.33.13-2.03-.01-.71-.08-1.44-.17-2.18-.09-.74-.17-1.49-.23-2.25-.12-1.51-.21-3.01-.35-4.42-.12-1.41-.26-2.73-.38-3.86-.24-2.26-.44-3.77-.44-3.77h-.34s-.21 1.5-.46 3.76c-.12 1.13-.27 2.45-.4 3.86-.15 1.41-.25 2.92-.37 4.42-.06.75-.14 1.51-.24 2.25-.09.74-.17 1.47-.18 2.18-.01.71.04 1.39.12 2.04.07.64.17 1.25.28 1.82zm1.4 5.66c1.04 0 1.89-.85 1.89-1.9 0-1.05-.85-1.9-1.89-1.9a1.9 1.9 0 100 3.8zm-22.12-7.16c.13.68.28 1.3.44 1.87.46-.21.98-.33 1.52-.33.52 0 1.02.11 1.47.3.16-.56.31-1.17.44-1.84.16-.79.3-1.65.41-2.56.12-.91.19-1.87.18-2.86-.01-.99-.12-2.02-.25-3.06s-.25-2.1-.33-3.16c-.16-2.12-.3-4.24-.5-6.22-.17-1.99-.37-3.84-.53-5.43-.34-3.18-.62-5.3-.62-5.3h-.48s-.29 2.12-.64 5.29c-.17 1.59-.37 3.44-.56 5.43-.21 1.99-.35 4.1-.52 6.22-.09 1.06-.21 2.12-.34 3.16-.13 1.04-.24 2.07-.26 3.06-.01.99.05 1.95.17 2.86.1.92.23 1.78.4 2.57zm-.27 8.31c-.81-.6-1.37-1.53-1.48-2.59-.58.15-1.19.33-1.84.55-.77.26-1.58.57-2.42.93-.84.35-1.71.78-2.56 1.28-.85.51-1.69 1.12-2.53 1.75-.84.63-1.7 1.27-2.57 1.87-1.75 1.2-3.52 2.39-5.13 3.55-1.63 1.15-3.14 2.25-4.43 3.19-2.6 1.9-4.29 3.2-4.29 3.2l.24.42s1.98-.81 4.9-2.1c1.46-.65 3.16-1.4 4.97-2.24 1.82-.82 3.73-1.75 5.64-2.67.96-.46 1.94-.88 2.9-1.29.97-.41 1.91-.83 2.78-1.31.86-.49 1.66-1.02 2.39-1.58.74-.55 1.41-1.1 2.02-1.63.53-.46.99-.91 1.41-1.33z"/><path class="st0" d="M50.89 44.68l-.31-8.34c-.29.11-.61.18-.94.18-.33 0-.65-.07-.94-.18l-.25 6.62c-1.08-.75-2.19-1.5-3.3-2.26-.58-.4-1.15-.82-1.72-1.23.17-.08.34-.16.5-.25.62-.35 1.18-.73 1.7-1.12.52-.39 1-.78 1.44-1.16.37-.32.7-.64.99-.94A2.66 2.66 0 0147 34.16c-.41.11-.85.23-1.31.39-.55.18-1.13.4-1.72.66-.6.25-1.22.55-1.82.91-.58.35-1.16.76-1.73 1.19a7.22 7.22 0 00-.36-.23c-.86-.51-1.72-.93-2.57-1.28-.84-.37-1.66-.68-2.42-.93-.67-.23-1.29-.41-1.88-.56a3.749 3.749 0 01-1.47 2.58c.42.42.88.87 1.41 1.33a27.5 27.5 0 002.02 1.63c.26.2.55.4.83.59-.37.26-.75.52-1.11.78-1.16.82-2.23 1.6-3.15 2.27-.24.17-.46.34-.67.5l-.25-6.59c-.41.16-.86.25-1.32.25-.47 0-.91-.1-1.32-.25l-1.18 31.73h-2.81v2.9h10.64v-2.9H32l-.9-24.03c.38-.17.8-.35 1.25-.55 1.04-.46 2.25-1 3.54-1.6.79-.36 1.61-.75 2.44-1.14.65.32 1.32.63 2.01.92.97.41 1.94.84 2.9 1.29 1.73.82 3.44 1.65 5.1 2.41l-.46 12.46h-2v2.06h7.56v-2.06h-2L51 47.68c1.01.46 1.97.88 2.84 1.27 2.92 1.29 4.9 2.1 4.9 2.1l.24-.42s-1.69-1.31-4.27-3.2c-1.13-.81-2.43-1.76-3.82-2.75z"/><path class="st0" d="M29.47 36.56a2.67 2.67 0 10.001-5.339 2.67 2.67 0 00-.001 5.339z"/></svg>