<svg version="1.1" id="Layer_1" xmlns="http://www.w3.org/2000/svg" x="0" y="0" viewBox="0 0 51.59 61.45" xml:space="preserve"><style>.st0{fill:#fff}</style><path class="st0" d="M14.45 27.92l.25-.15c.68-.38 1.55-.13 1.93.55l1.05 1.88c.07.01.13.01.2.01 2.61 0 5.02-.81 7.01-2.2l-1.83-3.28c-.38-.68-.14-1.55.54-1.93l.26-.14c.32-.19.71-.23 1.07-.13.36.11.67.35.85.67l1.48 2.66c1.84-2.15 2.95-4.95 2.95-8 0-6.8-5.53-12.34-12.34-12.34-6.8 0-12.34 5.53-12.34 12.34 0 5.36 3.44 9.95 8.23 11.63-.06-.24-.06-.49.01-.73.11-.35.35-.65.68-.84zm9.04-12.05a2 2 0 110 4c-1.11 0-2-.89-2-2a2 2 0 012-2zm-11.41 4c-1.11 0-2-.89-2-2a2 2 0 112 2zm39.47 31.24a.707.707 0 00-1.4.18c.01.05.64 5.27-3.98 7.84-4.15 2.32-7.04-.54-7.55-1.11l1.6-.89-.52-.93-1.06.59-.54-.96 1.06-.59-.5-.89-1.06.59-.54-.96 1.06-.59-.6-1.07.22-.12c2.28-1.27 3.03-4.24 1.69-6.63l-.22-.4c-1.25-2.24-.54-5.01 1.58-6.2l-4.06-7.27-1.03.6-6.17 3.44-14.17 7.91 4.06 7.27c2.12-1.18 4.85-.33 6.1 1.91l.22.4c1.34 2.4 4.27 3.31 6.55 2.04l.22-.12.59 1.06 1.06-.59.54.96-1.06.59.5.89 1.06-.59.54.96-1.06.59.52.93 2.2-1.23c.02.04.03.08.06.11.03.04 2.19 2.62 5.59 2.62 1.14 0 2.43-.29 3.83-1.07 5.44-3.04 4.68-9.2 4.67-9.27z"/><path class="st0" d="M35.75 30.87l.41-.23 1.59-.89-.96-1.75-1.04.57V4c0-2.21-1.79-4-4-4H4C1.8 0 0 1.79 0 4v27.74c0 2.21 1.8 4 4 4h13.2l-2.92-5.24c-5.49-1.56-9.53-6.63-9.53-12.64 0-7.24 5.9-13.14 13.14-13.14 7.25 0 13.14 5.9 13.14 13.14 0 3.35-1.26 6.42-3.33 8.75l2.75 4.93-2.73 1.52-2.42-4.35c-2.05 1.4-4.5 2.24-7.15 2.28l2.64 4.74h2.15l-1.63.92-2.72 1.51-4.76 2.66-1.59.89.97 1.75 1.6-.89 12.25-6.84 8.69-4.86z"/></svg>