<svg xmlns="http://www.w3.org/2000/svg" viewBox="0 0 67.81 50"><path d="M40.07 40.95h27.74L61 0H6.81L0 40.95h27.39v4.25h-6.18V50h25.03v-4.81h-6.18v-4.24zm0-22.3h10.25l.78 8.62H40.36l-.29-8.62zm.66 19.57l-.33-9.62h10.81l.87 9.62H40.73zm24.06 0H53.44l-.93-9.62h10.8l1.48 9.62zm-1.68-10.95H52.38l-.84-8.62h10.24l1.33 8.62zm-1.51-9.81H51.43l-.75-7.78h9.74l1.18 7.78zm-2.43-15.9l1.08 7.05h-9.69l-.69-7.05h9.3zm-8.96 15.9H40.03l-.26-7.78h9.75l.69 7.78zm-1.43-15.9l.64 7.05h-9.69l-.24-7.05h9.29zm-19.68 0h9.29l.19 7.05H28.9l.2-7.05zm-.24 8.12h9.75l.21 7.78H28.63l.23-7.78zm-.26 8.97h10.25l.24 8.62H28.34l.26-8.62zm-.29 9.95h10.81l.26 9.62H28.02l.29-9.62zM18.7 1.56h9.29l-.25 7.05h-9.68l.64-7.05zm9 8.12l-.28 7.78H17.23l.72-7.78h9.75zM8.31 1.56h9.29l-.7 7.05H7.21l1.1-7.05zM7.04 9.68h9.75l-.77 7.78H5.83l1.21-7.78zm6.92 28.54H2.6l1.5-9.62h10.81l-.95 9.62zM4.31 27.27l1.34-8.62H15.9l-.86 8.62H4.31zm22.36 10.95H15.31l.89-9.62h10.81l-.34 9.62zm.39-10.95H16.33l.8-8.62h10.25l-.32 8.62z" fill="#fff"/></svg>